<?xml version="1.0" encoding="utf-8"?>
<!-- Generator: Adobe Illustrator 16.0.0, SVG Export Plug-In . SVG Version: 6.00 Build 0)  -->
<!DOCTYPE svg PUBLIC "-//W3C//DTD SVG 1.1//EN" "http://www.w3.org/Graphics/SVG/1.1/DTD/svg11.dtd">
<svg version="1.1" id="Layer_1" xmlns="http://www.w3.org/2000/svg" xmlns:xlink="http://www.w3.org/1999/xlink" x="0px" y="0px"
	 width="78px" height="69px" viewBox="0 0 78 69" enable-background="new 0 0 78 69" xml:space="preserve">
<g>
	<defs>
		<path id="SVGID_1_" d="M4.585,3.938L0.292,49.747c0,0-1.211,4.642,4.075,4.626c1.38-0.005,7.832-0.51,16.281-1.226L33.072,66.92
			l-1.869-14.681c19.521-1.707,42.43-3.814,42.43-3.814s3.632-0.55,4.293-3.742l-0.548-32.375c0,0,0.548-3.306-3.542-4.361
			C73.688,7.908,9.873,0.082,9.873,0.082S9.619,0.034,9.218,0.034C8.016,0.034,5.495,0.467,4.585,3.938"/>
	</defs>
	<clipPath id="SVGID_2_">
		<use xlink:href="#SVGID_1_"  overflow="visible"/>
	</clipPath>
	<path clip-path="url(#SVGID_2_)" fill="#FC7235" d="M77.378,12.308c0,0,0.549-3.306-3.542-4.362
		C73.688,7.908,9.874,0.082,9.874,0.082s-4.076-0.77-5.288,3.856L0.292,49.747c0,0-1.21,4.641,4.075,4.626
		c1.381-0.005,7.833-0.511,16.281-1.225L33.073,66.92l-1.87-14.681c19.522-1.707,42.43-3.814,42.43-3.814s3.633-0.55,4.294-3.742
		L77.378,12.308z"/>
	<path clip-path="url(#SVGID_2_)" fill="#FFFFFF" d="M0.59,41.292c-0.273-0.135,0.024-0.328,0.214-0.823L0.59,38.029
		c0.159-0.404,0.549-0.67,1.013-0.391c0.696,0.419,3.342,1.838,5.392,1.407c1.529-0.322,2.621-1.118,2.447-2.416
		c-0.157-1.173-1.4-1.859-3.394-2.744c-2.672-1.176-4.449-2.345-4.808-5.025c-0.375-2.806,1.32-6.06,6.053-6.693
		c2.512-0.337,4.336,0.229,5.257,0.745c0.559,0.352,0.621,0.812,0.358,1.402l-0.646,1.535c-0.19,0.495-0.723,0.651-1.122,0.534
		c-1.025-0.332-2.301-0.629-3.683-0.444c-1.675,0.224-2.323,1.121-2.2,2.042c0.135,1.005,0.847,1.549,2.842,2.433
		c2.946,1.311,5.147,2.465,5.516,5.229c0.466,3.476-1.814,6.509-6.337,7.115C4.515,43.129,1.606,41.88,0.59,41.292"/>
	<path clip-path="url(#SVGID_2_)" fill="#FFFFFF" d="M19.059,49.877c-0.052,0.562-0.289,1.02-0.959,1.109l-2.429,0.325
		c-0.419,0.056-0.858-0.354-0.841-0.868l0.138-27.94c-0.019-0.466,0.337-0.983,0.84-1.05l1.256-0.168
		c0.293-0.039,0.609,0.089,0.755,0.539l0.461,1.216c0.435-0.569,2.539-2.684,5.471-3.077c4.313-0.577,7.389,2.976,8.022,7.708
		c0.87,6.491-2.76,12.178-8.371,12.929c-1.969,0.263-3.876-0.291-4.34-0.57L19.059,49.877z M22.875,36.663
		c3.015-0.402,5.333-3.783,4.772-7.971c-0.437-3.267-2.16-4.996-4.464-4.688c-2.387,0.32-4.002,2.582-4.13,2.897l0.035,8.862
		C19.088,35.764,20.613,36.967,22.875,36.663"/>
	<path clip-path="url(#SVGID_2_)" fill="#FFFFFF" d="M50.102,35.619c0.026,0.508-0.421,0.994-0.84,1.05l-1.507,0.202
		c-0.377,0.051-0.651-0.083-0.761-0.58l-0.315-1.408c-0.296,0.338-2.045,2.875-5.229,3.301c-4.062,0.544-7.526-2.402-8.254-7.847
		c-0.814-6.072,2.447-11.965,7.934-12.7c2.89-0.387,4.979,1.209,5.418,1.619l0.465-1.298c0.159-0.405,0.497-0.748,0.832-0.793
		l1.382-0.185c0.419-0.056,0.772,0.365,0.793,0.831L50.102,35.619z M45.846,22.931c0,0-1.892-1.707-4.404-1.371
		c-3.183,0.426-4.817,4.14-4.351,7.616c0.465,3.476,2.284,5.279,4.713,4.954c2.387-0.32,3.987-3.007,4.141-3.454L45.846,22.931z"/>
	<path clip-path="url(#SVGID_2_)" fill="#FFFFFF" d="M51.735,35.4l0.044-17.825c-0.021-0.466,0.295-0.977,0.797-1.044l1.257-0.168
		c0.251-0.034,0.625,0.214,0.76,0.58l0.56,1.63c0.435-0.569,1.975-3.078,4.947-3.476c1.132-0.151,2.164-0.076,2.849,0.258
		c0.452,0.195,0.425,0.626,0.276,1.114l-0.693,2.139c-0.215,0.626-0.717,0.693-1.027,0.607c-0.257-0.009-1.301-0.167-2.013-0.072
		c-2.178,0.292-3.324,2.235-3.623,2.872l-0.071,12.841c0.006,0.681-0.253,0.972-1.049,1.08l-2.262,0.302
		C52.068,36.293,51.718,35.914,51.735,35.4"/>
	<path clip-path="url(#SVGID_2_)" fill="#FFFFFF" d="M64.34,33.712l0.175-27.988c0.017-0.514,0.337-0.982,0.798-1.044l2.555-0.342
		c0.461-0.062,0.852,0.312,0.836,0.826l-0.111,16.682l8.54-10.674c0.295-0.339,0.675-0.688,1.178-0.755l0.943,2.542
		c0.711-0.095,0.919,0.815,0.514,1.295l-7.135,8.799l7.326,8.227c0.396,0.416,0.21,1.251-0.46,1.341l-3.268,0.437
		c-0.376,0.05-0.608-0.089-0.762-0.282l-6.924-8.409l-0.06,8.79c0.025,0.508-0.379,0.989-0.756,1.039l-2.639,0.353
		C64.673,34.605,64.324,34.227,64.34,33.712"/>
	<path clip-path="url(#SVGID_2_)" fill="#FFFFFF" d="M0.59,41.292c-0.273-0.135,0.024-0.328,0.214-0.823L0.59,38.029
		c0.159-0.404,0.549-0.67,1.013-0.391c0.696,0.419,3.342,1.838,5.392,1.407c1.529-0.322,2.621-1.118,2.447-2.416
		c-0.157-1.173-1.4-1.859-3.394-2.744c-2.672-1.176-4.449-2.345-4.808-5.025c-0.375-2.806,1.32-6.06,6.053-6.693
		c2.512-0.337,4.336,0.229,5.257,0.745c0.559,0.352,0.621,0.812,0.358,1.402l-0.646,1.535c-0.19,0.495-0.723,0.651-1.122,0.534
		c-1.025-0.332-2.301-0.629-3.683-0.444c-1.675,0.224-2.323,1.121-2.2,2.042c0.135,1.005,0.847,1.549,2.842,2.433
		c2.946,1.311,5.147,2.465,5.516,5.229c0.466,3.476-1.814,6.509-6.337,7.115C4.515,43.129,1.606,41.88,0.59,41.292"/>
	<path clip-path="url(#SVGID_2_)" fill="#FFFFFF" d="M19.059,49.877c-0.052,0.562-0.289,1.02-0.959,1.109l-2.429,0.325
		c-0.419,0.056-0.858-0.354-0.841-0.868l0.138-27.94c-0.019-0.466,0.337-0.983,0.84-1.05l1.256-0.168
		c0.293-0.039,0.609,0.089,0.755,0.539l0.461,1.216c0.435-0.569,2.539-2.684,5.471-3.077c4.313-0.577,7.389,2.976,8.022,7.708
		c0.87,6.491-2.76,12.178-8.371,12.929c-1.969,0.263-3.876-0.291-4.34-0.57L19.059,49.877z M22.875,36.663
		c3.015-0.402,5.333-3.783,4.772-7.971c-0.437-3.267-2.16-4.996-4.464-4.688c-2.387,0.32-4.002,2.582-4.13,2.897l0.035,8.862
		C19.088,35.764,20.613,36.967,22.875,36.663"/>
	<path clip-path="url(#SVGID_2_)" fill="#FFFFFF" d="M50.102,35.619c0.026,0.508-0.421,0.994-0.84,1.05l-1.507,0.202
		c-0.377,0.051-0.651-0.083-0.761-0.58l-0.315-1.408c-0.296,0.338-2.045,2.875-5.229,3.301c-4.062,0.544-7.526-2.402-8.254-7.847
		c-0.814-6.072,2.447-11.965,7.934-12.7c2.89-0.387,4.979,1.209,5.418,1.619l0.465-1.298c0.159-0.405,0.497-0.748,0.832-0.793
		l1.382-0.185c0.419-0.056,0.772,0.365,0.793,0.831L50.102,35.619z M45.846,22.931c0,0-1.892-1.707-4.404-1.371
		c-3.183,0.426-4.817,4.14-4.351,7.616c0.465,3.476,2.284,5.279,4.713,4.954c2.387-0.32,3.987-3.007,4.141-3.454L45.846,22.931z"/>
	<path clip-path="url(#SVGID_2_)" fill="#FFFFFF" d="M51.735,35.4l0.044-17.825c-0.021-0.466,0.295-0.977,0.797-1.044l1.257-0.168
		c0.251-0.034,0.625,0.214,0.76,0.58l0.56,1.63c0.435-0.569,1.975-3.078,4.947-3.476c1.132-0.151,2.164-0.076,2.849,0.258
		c0.452,0.195,0.425,0.626,0.276,1.114l-0.693,2.139c-0.215,0.626-0.717,0.693-1.027,0.607c-0.257-0.009-1.301-0.167-2.013-0.072
		c-2.178,0.292-3.324,2.235-3.623,2.872l-0.071,12.841c0.006,0.681-0.253,0.972-1.049,1.08l-2.262,0.302
		C52.068,36.293,51.718,35.914,51.735,35.4"/>
	<path clip-path="url(#SVGID_2_)" fill="#FFFFFF" d="M64.34,33.712l0.175-27.988c0.017-0.514,0.337-0.982,0.798-1.044l2.555-0.342
		c0.461-0.062,0.852,0.312,0.836,0.826l-0.111,16.682l8.54-10.674c0.295-0.339,0.675-0.688,1.178-0.755l0.943,2.542
		c0.711-0.095,0.919,0.815,0.514,1.295l-7.135,8.799l7.326,8.227c0.396,0.416,0.21,1.251-0.46,1.341l-3.268,0.437
		c-0.376,0.05-0.608-0.089-0.762-0.282l-6.924-8.409l-0.06,8.79c0.025,0.508-0.379,0.989-0.756,1.039l-2.639,0.353
		C64.673,34.605,64.324,34.227,64.34,33.712"/>
</g>
</svg>
